<svg width="193" height="58" viewBox="0 0 193 58" fill="none" xmlns="http://www.w3.org/2000/svg">
<path d="M0.675205 44V1.4H28.6352V5.12H4.87521V20.78H24.9152V24.26H4.87521V44H0.675205ZM35.1672 44V12.74H39.2472V44H35.1672ZM35.1672 6.2V0.199999H39.2472V6.2H35.1672ZM63.2336 42.5C62.9136 42.62 62.4136 42.84 61.7336 43.16C61.0536 43.48 60.2336 43.76 59.2736 44C58.3136 44.24 57.2736 44.36 56.1536 44.36C54.9936 44.36 53.8936 44.14 52.8536 43.7C51.8536 43.26 51.0536 42.6 50.4536 41.72C49.8536 40.8 49.5536 39.68 49.5536 38.36V15.98H45.2336V12.74H49.5536V2.18H53.6336V12.74H60.8336V15.98H53.6336V37.22C53.7136 38.34 54.1136 39.18 54.8336 39.74C55.5936 40.3 56.4536 40.58 57.4136 40.58C58.5336 40.58 59.5536 40.4 60.4736 40.04C61.3936 39.64 61.9536 39.36 62.1536 39.2L63.2336 42.5ZM97.7913 40.28V44H69.1713V1.4H97.2513V5.12H73.3713V20.48H94.1913V24.02H73.3713V40.28H97.7913ZM102.198 35C102.198 33.04 102.758 31.36 103.878 29.96C104.998 28.52 106.538 27.42 108.498 26.66C110.498 25.86 112.798 25.46 115.398 25.46C116.918 25.46 118.498 25.58 120.138 25.82C121.778 26.06 123.238 26.42 124.518 26.9V24.26C124.518 21.62 123.738 19.52 122.178 17.96C120.618 16.4 118.458 15.62 115.698 15.62C114.018 15.62 112.358 15.94 110.718 16.58C109.118 17.18 107.438 18.08 105.678 19.28L104.118 16.4C106.158 15 108.158 13.96 110.118 13.28C112.078 12.56 114.078 12.2 116.118 12.2C119.958 12.2 122.998 13.3 125.238 15.5C127.478 17.7 128.598 20.74 128.598 24.62V39.08C128.598 39.64 128.718 40.06 128.958 40.34C129.198 40.58 129.578 40.72 130.098 40.76V44C129.658 44.04 129.278 44.08 128.958 44.12C128.638 44.16 128.398 44.16 128.238 44.12C127.238 44.08 126.478 43.76 125.958 43.16C125.438 42.56 125.158 41.92 125.118 41.24L125.058 38.96C123.658 40.76 121.838 42.16 119.598 43.16C117.358 44.12 115.078 44.6 112.758 44.6C110.758 44.6 108.938 44.18 107.298 43.34C105.698 42.46 104.438 41.3 103.518 39.86C102.638 38.38 102.198 36.76 102.198 35ZM123.138 37.4C123.578 36.84 123.918 36.3 124.158 35.78C124.398 35.26 124.518 34.8 124.518 34.4V29.84C123.158 29.32 121.738 28.92 120.258 28.64C118.818 28.36 117.358 28.22 115.878 28.22C112.958 28.22 110.598 28.8 108.798 29.96C106.998 31.12 106.098 32.7 106.098 34.7C106.098 35.86 106.398 36.96 106.998 38C107.598 39 108.478 39.84 109.638 40.52C110.798 41.16 112.158 41.48 113.718 41.48C115.678 41.48 117.498 41.1 119.178 40.34C120.898 39.58 122.218 38.6 123.138 37.4ZM147.673 44.6C145.113 44.6 142.733 44.18 140.533 43.34C138.333 42.5 136.433 41.22 134.833 39.5L136.513 36.62C138.273 38.26 140.033 39.46 141.793 40.22C143.593 40.94 145.493 41.3 147.493 41.3C149.933 41.3 151.913 40.82 153.433 39.86C154.953 38.86 155.713 37.44 155.713 35.6C155.713 34.36 155.333 33.42 154.573 32.78C153.853 32.1 152.793 31.56 151.393 31.16C150.033 30.72 148.393 30.26 146.473 29.78C144.313 29.18 142.493 28.56 141.013 27.92C139.573 27.24 138.473 26.4 137.713 25.4C136.993 24.36 136.633 23.02 136.633 21.38C136.633 19.34 137.133 17.66 138.133 16.34C139.173 14.98 140.573 13.96 142.333 13.28C144.133 12.56 146.133 12.2 148.333 12.2C150.733 12.2 152.853 12.58 154.693 13.34C156.533 14.1 158.033 15.16 159.193 16.52L157.213 19.28C156.093 18 154.753 17.06 153.193 16.46C151.673 15.82 149.973 15.5 148.093 15.5C146.813 15.5 145.593 15.68 144.433 16.04C143.273 16.36 142.313 16.92 141.553 17.72C140.833 18.48 140.473 19.54 140.473 20.9C140.473 22.02 140.753 22.9 141.313 23.54C141.873 24.14 142.713 24.66 143.833 25.1C144.953 25.5 146.333 25.94 147.973 26.42C150.333 27.06 152.393 27.72 154.153 28.4C155.913 29.04 157.273 29.88 158.233 30.92C159.193 31.96 159.673 33.42 159.673 35.3C159.673 38.22 158.573 40.5 156.373 42.14C154.173 43.78 151.273 44.6 147.673 44.6ZM167.573 53.6C168.133 53.64 168.673 53.66 169.193 53.66C169.713 53.7 170.093 53.68 170.333 53.6C170.813 53.52 171.273 53.24 171.713 52.76C172.153 52.28 172.673 51.36 173.273 50C173.873 48.64 174.713 46.64 175.793 44L162.173 12.74H166.493L177.953 39.8L188.513 12.74H192.593L176.393 53.06C176.113 53.82 175.693 54.52 175.133 55.16C174.573 55.84 173.873 56.36 173.033 56.72C172.233 57.12 171.233 57.34 170.033 57.38C169.673 57.42 169.293 57.42 168.893 57.38C168.533 57.38 168.093 57.34 167.573 57.26V53.6Z" fill="#7D7675"/>
</svg>
