<svg width="190" height="171" viewBox="0 0 190 171" fill="none" xmlns="http://www.w3.org/2000/svg">
<path d="M153.431 59.3712H148.3C140.986 34.8852 118.329 17.0406 91.5003 17.0406C64.6716 17.0406 41.9973 34.8852 34.6835 59.3712H29.5517C37.0051 32.1237 61.9137 12.0945 91.5003 12.0945C121.087 12.0945 145.978 32.1237 153.431 59.3712Z" fill="#142C51"/>
<path d="M155.055 85.5874H150.062C148.334 96.6856 143.552 106.77 136.587 114.932L131.246 105.652L128.558 100.985C126.376 104.271 123.757 107.242 120.79 109.846C116.217 113.849 110.806 116.942 104.853 118.812C100.647 120.14 96.1608 120.857 91.5177 120.857V103.362H91.5002V98.5033H91.5177V85.5874H81.6031V119.721C64.7763 115.893 51.5627 102.523 47.9495 85.5874H43.0271C47.3385 108.465 67.412 125.768 91.5177 125.768C97.0684 125.768 102.392 124.859 107.384 123.164C108.955 125.873 110.684 128.879 112.446 131.938C105.936 134.402 98.8838 135.748 91.5002 135.748C61.8787 135.748 37.3367 114.006 32.9205 85.5874H27.9283C32.3794 116.75 59.1383 140.694 91.5002 140.694C99.774 140.694 107.681 139.121 114.943 136.272C121.453 147.58 127.737 158.469 127.737 158.469L137.407 152.876L124.962 131.291C126.987 130.05 128.959 128.687 130.827 127.236C135.068 134.594 139.31 141.952 143.552 149.31C146.763 147.458 149.993 145.588 153.204 143.735L139.205 119.441C147.531 110.196 153.204 98.5208 155.055 85.5874ZM122.483 127.009L117.508 118.375C119.551 117.117 121.471 115.701 123.304 114.163C124.979 117.082 126.655 120.001 128.331 122.902C126.463 124.387 124.508 125.751 122.483 127.009Z" fill="#142C51"/>
<path d="M91.5177 26.9503V59.3711H81.6031V32.7529C67.3422 36.0037 55.6821 46.0882 50.2535 59.3711H45.1566C52.0863 40.4604 70.2223 26.9503 91.5177 26.9503Z" fill="#142C51"/>
<path d="M108.379 40.3381H103.457V59.3711H108.379V40.3381Z" fill="#7D7675"/>
<path d="M105.796 85.5874C102.829 90.3588 97.5397 93.5222 91.5177 93.5222V88.5935C94.5549 88.5935 97.3303 87.4575 99.4424 85.5874H105.796Z" fill="#7D7675"/>
<path d="M118.189 27.1426V59.3711H113.284C113.267 46.8397 113.249 32.0887 113.249 32.0887H100.106V27.1426H118.189Z" fill="#7D7675"/>
<path d="M116.653 85.5874C112.988 95.9341 103.125 103.362 91.5177 103.362V98.5033C100.385 98.5033 108.013 93.1901 111.417 85.5874H116.653Z" fill="#7D7675"/>
<path d="M91.5177 98.5033H91.5002V103.362H91.5177V98.5033Z" fill="#808080"/>
<path d="M25.4323 82.389C24.1406 82.389 22.9885 82.1269 21.9412 81.62C20.8939 81.1132 19.9862 80.4141 19.2357 79.5577C18.4676 78.7013 17.8916 77.7225 17.4727 76.6389C17.0538 75.5553 16.8618 74.4368 16.8618 73.3007C16.8618 72.1123 17.0887 70.9587 17.5251 69.8751C17.9614 68.7915 18.5724 67.8128 19.3579 66.9739C20.1433 66.1175 21.051 65.4533 22.0983 64.9465C23.1456 64.4571 24.2802 64.1949 25.5195 64.1949C26.8112 64.1949 27.9633 64.4571 29.0106 64.9814C30.0579 65.5058 30.9481 66.2049 31.7161 67.0787C32.4667 67.9526 33.0602 68.9314 33.4617 70.015C33.8806 71.0986 34.0726 72.1996 34.0726 73.3182C34.0726 74.5067 33.8631 75.6602 33.4268 76.7438C32.9904 77.8274 32.3969 78.8062 31.6114 79.6451C30.8259 80.5015 29.9183 81.1656 28.8709 81.655C27.8062 82.1444 26.6716 82.389 25.4323 82.389ZM25.4672 80.3442C26.4447 80.3442 27.3174 80.1344 28.0855 79.7325C28.8535 79.3305 29.5168 78.7887 30.0579 78.1245C30.599 77.4429 31.0005 76.6914 31.2972 75.8525C31.5765 75.0135 31.7161 74.1571 31.7161 73.3007C31.7161 72.3919 31.559 71.518 31.2623 70.6616C30.9656 69.8052 30.5292 69.0537 29.9706 68.407C29.4121 67.7429 28.7488 67.236 27.9982 66.8341C27.2302 66.4495 26.3923 66.2573 25.4672 66.2573C24.4897 66.2573 23.6169 66.467 22.8489 66.869C22.0809 67.271 21.4176 67.8128 20.8765 68.4769C20.3353 69.1586 19.9164 69.9101 19.6371 70.7315C19.3404 71.5705 19.2008 72.4269 19.2008 73.3007C19.2008 74.2096 19.3579 75.0834 19.6546 75.9398C19.9513 76.7962 20.3703 77.5478 20.9288 78.1944C21.4699 78.8586 22.1332 79.3654 22.9013 79.7674C23.6693 80.1519 24.5246 80.3442 25.4672 80.3442ZM26.497 76.3943H28.7662L33.8806 82.2492H31.6114L26.497 76.3943Z" fill="#142C51"/>
<path d="M44.7377 82.389C43.2889 82.389 42.0496 82.1443 41.0721 81.6375C40.0772 81.1481 39.2742 80.4665 38.6808 79.6101C38.0873 78.7537 37.6509 77.7924 37.3716 76.7263C37.0923 75.6427 36.9527 74.5416 36.9527 73.3881V64.3173H39.2568V73.3881C39.2568 74.262 39.3441 75.1184 39.5186 75.9573C39.6932 76.7962 39.9899 77.5303 40.4088 78.1944C40.8278 78.8586 41.3689 79.3654 42.0845 79.7674C42.7827 80.1519 43.6555 80.3441 44.7028 80.3441C45.7676 80.3441 46.6403 80.1519 47.356 79.7499C48.0542 79.3479 48.6128 78.8236 49.0317 78.1595C49.4506 77.4953 49.7299 76.7438 49.9219 75.9223C50.0965 75.1009 50.1838 74.262 50.1838 73.4056V64.3347H52.4878V73.4056C52.4878 74.6115 52.3482 75.765 52.0689 76.8486C51.7896 77.9322 51.3358 78.8935 50.7249 79.715C50.1139 80.5364 49.311 81.2005 48.316 81.6724C47.3385 82.1443 46.1341 82.389 44.7377 82.389Z" fill="#142C51"/>
<path d="M56.6073 82.2666V64.3347H58.9114V82.2666H56.6073Z" fill="#142C51"/>
<path d="M62.1057 73.1434C62.1057 72.0423 62.2977 70.9762 62.6817 69.9276C63.0657 68.8789 63.6243 67.9176 64.3748 67.0438C65.1254 66.1699 66.0331 65.4883 67.1153 64.9814C68.1975 64.4746 69.4194 64.2124 70.7809 64.2124C72.4042 64.2124 73.8006 64.5794 74.9701 65.3135C76.1396 66.0475 76.995 66.9913 77.571 68.1274L75.7382 69.2809C75.3716 68.5293 74.9178 67.9176 74.3592 67.4807C73.8006 67.0263 73.2072 66.7117 72.5613 66.5369C71.9155 66.3447 71.2871 66.2573 70.6762 66.2573C69.6638 66.2573 68.7735 66.467 67.9881 66.869C67.2026 67.271 66.5567 67.8128 66.0156 68.4769C65.492 69.1585 65.0905 69.9101 64.8287 70.7315C64.5668 71.5704 64.4272 72.4094 64.4272 73.2483C64.4272 74.1746 64.5843 75.0659 64.8985 75.9223C65.2127 76.7787 65.6491 77.5303 66.2251 78.1944C66.8011 78.8586 67.4644 79.3654 68.2324 79.7674C69.0005 80.1519 69.8383 80.3442 70.746 80.3442C71.3744 80.3442 72.0377 80.2393 72.701 80.0121C73.3643 79.7849 73.9927 79.4528 74.5687 78.9809C75.1447 78.5265 75.616 77.9148 75.9476 77.1807L77.8677 78.2119C77.4837 79.1032 76.9077 79.8548 76.1222 80.484C75.3367 81.1132 74.4639 81.5851 73.4865 81.8996C72.5264 82.2142 71.5664 82.3715 70.6238 82.3715C69.367 82.3715 68.2324 82.1094 67.1851 81.5676C66.1378 81.0433 65.2301 80.3267 64.4796 79.4528C63.7115 78.5614 63.1181 77.5827 62.6991 76.4816C62.3151 75.3805 62.1057 74.262 62.1057 73.1434Z" fill="#142C51"/>
<path d="M80.8002 82.2667V64.3348H83.1043V74.2445L92.5126 64.2998H95.0087L87.695 72.2171L95.4276 82.2492H92.8268L86.2287 73.5804L83.1217 76.7613V82.2492H80.8002V82.2667Z" fill="#142C51"/>
<path d="M101.764 79.4354C102.096 79.6626 102.532 79.8548 103.108 80.0471C103.684 80.2394 104.365 80.3442 105.15 80.3442C105.953 80.3442 106.616 80.2219 107.123 79.9597C107.629 79.6975 108.03 79.313 108.31 78.7887C108.589 78.2644 108.763 77.6002 108.868 76.7788C108.973 75.9574 109.025 74.9961 109.025 73.8775V64.3523H111.329V73.3882C111.329 74.699 111.26 75.9224 111.12 77.0235C110.98 78.1246 110.701 79.0858 110.299 79.8898C109.881 80.6938 109.27 81.323 108.467 81.7599C107.646 82.1968 106.564 82.4066 105.22 82.4066C104.365 82.4066 103.614 82.3192 102.951 82.1269C102.305 81.9347 101.694 81.6725 101.153 81.288L101.764 79.4354Z" fill="#142C51"/>
<path d="M122.92 82.389C121.628 82.389 120.476 82.1444 119.429 81.6375C118.381 81.1307 117.474 80.449 116.723 79.5752C115.955 78.7013 115.379 77.74 114.96 76.6389C114.541 75.5553 114.349 74.4368 114.349 73.3007C114.349 72.1123 114.576 70.9587 115.012 69.8751C115.449 68.7915 116.06 67.8128 116.845 66.9739C117.631 66.1175 118.538 65.4533 119.586 64.9465C120.633 64.4571 121.768 64.1949 123.007 64.1949C124.299 64.1949 125.451 64.4571 126.498 64.9814C127.545 65.5058 128.435 66.2049 129.204 67.0787C129.954 67.9526 130.548 68.9314 130.949 70.015C131.368 71.0986 131.56 72.1996 131.56 73.3182C131.56 74.5067 131.351 75.6602 130.914 76.7438C130.478 77.8274 129.884 78.8062 129.099 79.6451C128.313 80.5015 127.406 81.1656 126.358 81.655C125.294 82.1444 124.142 82.389 122.92 82.389ZM116.671 73.3007C116.671 74.2096 116.828 75.0834 117.125 75.9398C117.421 76.7962 117.84 77.5478 118.399 78.1944C118.94 78.8586 119.603 79.3654 120.371 79.7674C121.139 80.1519 121.995 80.3442 122.937 80.3442C123.915 80.3442 124.787 80.1344 125.555 79.7325C126.323 79.3305 126.987 78.7887 127.528 78.1245C128.069 77.4429 128.47 76.6914 128.767 75.8525C129.046 75.0135 129.186 74.1571 129.186 73.3007C129.186 72.3919 129.029 71.518 128.732 70.6791C128.435 69.8402 127.999 69.0887 127.441 68.4245C126.882 67.7604 126.219 67.236 125.468 66.8515C124.7 66.467 123.862 66.2748 122.937 66.2748C121.96 66.2748 121.087 66.467 120.319 66.869C119.551 67.271 118.887 67.7953 118.346 68.4769C117.805 69.1586 117.386 69.9101 117.107 70.7315C116.81 71.5705 116.671 72.4269 116.671 73.3007Z" fill="#142C51"/>
<path d="M148.736 77.6351C148.736 78.5614 148.492 79.3654 148.02 80.0645C147.549 80.7636 146.886 81.2879 146.083 81.6724C145.262 82.0569 144.372 82.2492 143.395 82.2492H134.737V64.3347H143.814C144.669 64.3347 145.402 64.5619 146.03 64.9989C146.659 65.4533 147.13 66.0126 147.462 66.7117C147.793 67.4108 147.968 68.1448 147.968 68.8963C147.968 69.7702 147.741 70.5917 147.287 71.3607C146.833 72.1297 146.187 72.689 145.35 73.0735C146.397 73.3706 147.217 73.9299 147.828 74.7513C148.422 75.5553 148.736 76.534 148.736 77.6351ZM137.041 66.2922V72.2695H142.853C143.395 72.2695 143.883 72.1297 144.302 71.8675C144.721 71.6054 145.053 71.2383 145.297 70.7839C145.542 70.3295 145.664 69.8401 145.664 69.2983C145.664 68.7216 145.542 68.2147 145.315 67.7778C145.088 67.3234 144.774 66.9738 144.372 66.7117C143.971 66.4495 143.517 66.3097 142.993 66.3097H137.041V66.2922ZM146.397 77.2331C146.397 76.6738 146.275 76.167 146.03 75.6951C145.786 75.2232 145.454 74.8387 145.035 74.5591C144.616 74.2794 144.128 74.1221 143.587 74.1221H137.058V80.2917H143.412C143.971 80.2917 144.494 80.1519 144.948 79.8547C145.402 79.5751 145.769 79.1906 146.03 78.7362C146.257 78.2818 146.397 77.7749 146.397 77.2331Z" fill="#142C51"/>
<path d="M162.683 68.0924C162.473 67.8652 162.211 67.638 161.862 67.4108C161.513 67.1836 161.129 66.9913 160.71 66.8166C160.274 66.6418 159.82 66.502 159.314 66.3796C158.808 66.2748 158.284 66.2223 157.725 66.2223C156.329 66.2223 155.282 66.4845 154.618 67.0088C153.955 67.5332 153.623 68.2497 153.623 69.1411C153.623 69.7703 153.798 70.2771 154.13 70.6442C154.479 71.0112 155.002 71.3083 155.718 71.553C156.434 71.7802 157.324 72.0249 158.424 72.287C159.698 72.5492 160.78 72.8813 161.705 73.2658C162.63 73.6503 163.346 74.1746 163.835 74.8213C164.323 75.4679 164.585 76.3243 164.585 77.4079C164.585 78.2643 164.411 78.9984 164.079 79.6276C163.747 80.2568 163.276 80.7811 162.683 81.1831C162.089 81.6026 161.374 81.8997 160.571 82.0919C159.768 82.2842 158.895 82.389 157.952 82.389C157.027 82.389 156.119 82.2842 155.247 82.0919C154.357 81.8997 153.536 81.62 152.733 81.253C151.948 80.886 151.215 80.4141 150.516 79.8723L151.616 77.9498C151.895 78.2294 152.244 78.5265 152.681 78.7887C153.117 79.0683 153.606 79.3305 154.165 79.5577C154.723 79.8024 155.317 79.9771 155.98 80.1344C156.626 80.2743 157.306 80.3442 157.987 80.3442C159.296 80.3442 160.291 80.117 161.024 79.6451C161.74 79.1907 162.107 78.509 162.107 77.6177C162.107 76.9535 161.897 76.4117 161.496 76.0097C161.094 75.6078 160.501 75.2757 159.715 74.9961C158.93 74.7339 157.97 74.4542 156.835 74.1921C155.596 73.895 154.566 73.5629 153.728 73.1959C152.89 72.8288 152.262 72.3569 151.843 71.7802C151.424 71.186 151.215 70.4344 151.215 69.4906C151.215 68.3546 151.494 67.3759 152.07 66.5894C152.646 65.8029 153.414 65.2086 154.409 64.8067C155.404 64.4047 156.521 64.1949 157.778 64.1949C158.598 64.1949 159.366 64.2823 160.082 64.4396C160.797 64.6144 161.461 64.8416 162.072 65.1387C162.683 65.4359 163.259 65.8029 163.765 66.2223L162.683 68.0924Z" fill="#142C51"/>
</svg>
