<svg width="173" height="198" viewBox="0 0 173 198" fill="none" xmlns="http://www.w3.org/2000/svg">
<path d="M8.80304 188.408V194.917C8.80304 196.942 7.91584 198 6.11185 198C4.1107 198 3.49951 196.744 3.49951 194.926V188.417C3.49951 186.518 4.35715 185.397 6.18085 185.397C8.12285 185.407 8.80304 186.763 8.80304 188.408ZM4.50501 188.435V194.944C4.50501 196.572 5.15563 197.177 6.16114 197.177C7.20607 197.177 7.79754 196.581 7.79754 194.872V188.453C7.79754 186.925 7.19621 186.238 6.14142 186.238C5.02748 186.229 4.50501 186.889 4.50501 188.435Z" fill="url(#paint0_linear_18_167)"/>
<path d="M10.5972 191.383C10.5972 189.538 10.5972 189.077 10.5775 188.589H11.514C11.5337 188.797 11.5633 189.086 11.5633 189.574C11.8689 188.797 12.5097 188.444 13.4067 188.444C14.4221 188.444 15.3389 188.951 15.3389 190.614V197.847H14.3531V190.804C14.3531 189.864 14.0179 189.303 13.1603 189.303C12.2238 189.303 11.5929 189.71 11.5929 191.817V197.856H10.6071V191.383H10.5972Z" fill="url(#paint1_linear_18_167)"/>
<path d="M21.8154 185.009V195.586C21.8154 196.463 21.8154 197.313 21.8351 197.847H20.8986C20.8789 197.711 20.8494 197.196 20.8494 196.915C20.6226 197.467 20.179 197.991 19.1045 197.991C17.4878 197.991 17.0146 196.825 17.0146 195.062V191.147C17.0146 189.493 17.7441 188.444 19.2524 188.444C20.248 188.444 20.6423 188.869 20.8296 189.168V185.009H21.8154ZM18.0202 191.202V195.035C18.0202 196.445 18.4046 197.15 19.3115 197.15C20.5339 197.15 20.8395 196.047 20.8395 194.619V191.437C20.8395 190.406 20.7212 189.303 19.3608 189.303C18.4243 189.294 18.0202 190.026 18.0202 191.202Z" fill="url(#paint2_linear_18_167)"/>
<path d="M24.4869 193.326V194.953C24.4869 196.02 24.7037 197.196 25.8571 197.196C26.9217 197.196 27.1583 196.445 27.1583 195.396V195.297H28.1343V195.378C28.1343 196.526 27.8287 197.991 25.8374 197.991C24.063 197.991 23.5109 196.861 23.5109 194.971V191.229C23.5109 189.728 24.1221 188.435 25.8867 188.435C27.6808 188.435 28.1638 189.755 28.1638 191.238C28.1638 191.717 28.1638 192.793 28.1638 193.317H24.4869V193.326ZM27.1978 192.54V191.238C27.1978 190.37 27.0893 189.249 25.8768 189.249C24.7037 189.249 24.4967 190.189 24.4967 191.256V192.549H27.1978V192.54Z" fill="url(#paint3_linear_18_167)"/>
<path d="M36.7599 195.026V195.153C36.7599 196.698 36.3262 197.991 34.463 197.991C32.7477 197.991 32.2253 196.87 32.2253 195.017V191.129C32.2253 189.52 32.9055 188.444 34.5419 188.444C36.3163 188.444 36.7599 189.656 36.7599 190.949V191.346H35.7643V191.075C35.7643 190.144 35.5967 189.24 34.5222 189.24C33.6054 189.24 33.2209 189.864 33.2209 191.184V195.125C33.2209 196.102 33.4279 197.187 34.4827 197.187C35.3897 197.187 35.7643 196.68 35.7643 195.216V195.026H36.7599Z" fill="url(#paint4_linear_18_167)"/>
<path d="M42.31 196.454C42.31 197.123 42.3297 197.63 42.3494 197.847H41.4129C41.3538 197.584 41.3242 197.214 41.3242 197.042C41.0186 197.81 40.3384 197.991 39.6878 197.991C38.2683 197.991 37.7162 196.879 37.7162 195.424V195.261C37.7162 193.299 38.9485 192.467 40.7328 192.467C40.9201 192.467 41.0679 192.467 41.3144 192.467V190.804C41.3144 189.882 41.1172 189.267 40.2004 189.267C39.2836 189.267 39.0175 189.9 39.0175 190.732V191.048H38.0416V190.741C38.0416 189.484 38.5936 188.444 40.2399 188.444C41.8664 188.444 42.3199 189.475 42.3199 190.741V196.454H42.31ZM41.3341 193.236C41.1862 193.236 40.9003 193.236 40.7328 193.236C39.4315 193.236 38.6922 193.76 38.6922 195.225V195.388C38.6922 196.337 38.9879 197.151 39.8948 197.151C41.0088 197.151 41.3439 196.292 41.3439 194.809V193.236H41.3341Z" fill="url(#paint5_linear_18_167)"/>
<path d="M48.8161 185.009V195.586C48.8161 196.463 48.8161 197.313 48.8358 197.847H47.8993C47.8796 197.711 47.85 197.196 47.85 196.915C47.6233 197.467 47.1797 197.991 46.1052 197.991C44.4885 197.991 44.0153 196.825 44.0153 195.062V191.147C44.0153 189.493 44.7448 188.444 46.2531 188.444C47.2487 188.444 47.643 188.869 47.8303 189.168V185.009H48.8161ZM45.011 191.202V195.035C45.011 196.445 45.3954 197.15 46.3023 197.15C47.5247 197.15 47.8303 196.047 47.8303 194.619V191.437C47.8303 190.406 47.712 189.303 46.3516 189.303C45.425 189.294 45.011 190.026 45.011 191.202Z" fill="url(#paint6_linear_18_167)"/>
<path d="M54.8886 196.454C54.8886 197.123 54.9083 197.63 54.928 197.847H53.9915C53.9324 197.584 53.9028 197.214 53.9028 197.042C53.5972 197.81 52.917 197.991 52.2664 197.991C50.8468 197.991 50.2948 196.879 50.2948 195.424V195.261C50.2948 193.299 51.527 192.467 53.3113 192.467C53.4986 192.467 53.6465 192.467 53.8929 192.467V190.804C53.8929 189.882 53.6958 189.267 52.779 189.267C51.8622 189.267 51.596 189.9 51.596 190.732V191.048H50.6201V190.741C50.6201 189.484 51.1721 188.444 52.8184 188.444C54.445 188.444 54.8984 189.475 54.8984 190.741V196.454H54.8886ZM53.9126 193.236C53.7648 193.236 53.4789 193.236 53.3113 193.236C52.0101 193.236 51.2707 193.76 51.2707 195.225V195.388C51.2707 196.337 51.5665 197.151 52.4734 197.151C53.5873 197.151 53.9225 196.292 53.9225 194.809V193.236H53.9126Z" fill="url(#paint7_linear_18_167)"/>
<path d="M59.6499 191.247C59.6499 189.683 59.6499 189.059 59.6302 188.589H60.5667C60.6061 188.851 60.6061 189.195 60.616 189.493C60.8821 188.86 61.4046 188.444 62.3115 188.444C63.0607 188.444 63.6325 188.716 63.8494 189.565C64.1254 188.96 64.6577 188.444 65.6533 188.444C66.5603 188.444 67.4869 188.779 67.4869 190.551V197.847H66.5011V190.759C66.5011 189.972 66.3631 189.294 65.4266 189.294C64.3127 189.294 64.0662 190.262 64.0662 191.319V197.847H63.0804V190.858C63.0804 189.755 62.8044 189.294 61.9665 189.294C60.9019 189.294 60.6357 190.289 60.6357 191.464V197.847H59.6499V191.247Z" fill="url(#paint8_linear_18_167)"/>
<path d="M73.9635 191.066V195.161C73.9635 197.186 72.958 197.991 71.5385 197.991C70.1387 197.991 69.1627 197.223 69.1627 195.234V191.057C69.1627 189.43 70.0302 188.435 71.5976 188.435C73.2044 188.444 73.9635 189.448 73.9635 191.066ZM70.1682 191.075V195.27C70.1682 196.463 70.6217 197.177 71.5582 197.177C72.4257 197.177 72.958 196.653 72.958 195.261V191.075C72.958 190.026 72.544 189.267 71.568 189.267C70.5823 189.258 70.1682 189.927 70.1682 191.075Z" fill="url(#paint9_linear_18_167)"/>
<path d="M75.6591 191.753C75.6591 190.288 75.6591 189.33 75.6394 188.589H76.5858C76.6055 188.878 76.6252 189.285 76.6252 189.999C76.9801 188.941 77.8377 188.507 78.6855 188.471V189.592C77.3744 189.61 76.6449 190.542 76.6449 192.06V197.846H75.6591V191.753Z" fill="url(#paint10_linear_18_167)"/>
<path d="M84.2946 185.009V195.586C84.2946 196.463 84.2946 197.313 84.3143 197.847H83.3778C83.3581 197.711 83.3285 197.196 83.3285 196.915C83.1018 197.467 82.6582 197.991 81.5836 197.991C79.967 197.991 79.4938 196.825 79.4938 195.062V191.147C79.4938 189.493 80.2233 188.444 81.7315 188.444C82.7272 188.444 83.1215 188.869 83.3088 189.168V185.009H84.2946ZM80.4894 191.202V195.035C80.4894 196.445 80.8739 197.15 81.7808 197.15C83.0032 197.15 83.3088 196.047 83.3088 194.619V191.437C83.3088 190.406 83.1905 189.303 81.8301 189.303C80.9035 189.294 80.4894 190.026 80.4894 191.202Z" fill="url(#paint11_linear_18_167)"/>
<path d="M86.2858 188.589H87.2716V197.847H86.2858V188.589ZM86.2956 185.009H87.2814V186.826H86.2956V185.009Z" fill="url(#paint12_linear_18_167)"/>
<path d="M93.7581 185.009V195.586C93.7581 196.463 93.7581 197.313 93.7778 197.847H92.8413C92.8216 197.711 92.792 197.196 92.792 196.915C92.5653 197.467 92.1217 197.991 91.0471 197.991C89.4305 197.991 88.9573 196.825 88.9573 195.062V191.147C88.9573 189.493 89.6868 188.444 91.195 188.444C92.1907 188.444 92.585 188.869 92.7723 189.168V185.009H93.7581ZM89.9628 191.202V195.035C89.9628 196.445 90.3472 197.15 91.2542 197.15C92.4765 197.15 92.7821 196.047 92.7821 194.619V191.437C92.7821 190.406 92.6638 189.303 91.3035 189.303C90.367 189.294 89.9628 190.026 89.9628 191.202Z" fill="url(#paint13_linear_18_167)"/>
<path d="M99.8306 196.454C99.8306 197.123 99.8503 197.63 99.87 197.847H98.9335C98.8744 197.584 98.8448 197.214 98.8448 197.042C98.5392 197.81 97.859 197.991 97.2084 197.991C95.7889 197.991 95.2368 196.879 95.2368 195.424V195.261C95.2368 193.299 96.4691 192.467 98.2533 192.467C98.4406 192.467 98.5885 192.467 98.8349 192.467V190.804C98.8349 189.882 98.6378 189.267 97.721 189.267C96.8042 189.267 96.5381 189.9 96.5381 190.732V191.048H95.5621V190.741C95.5621 189.484 96.1142 188.444 97.7604 188.444C99.387 188.444 99.8404 189.475 99.8404 190.741V196.454H99.8306ZM98.8547 193.236C98.7068 193.236 98.4209 193.236 98.2533 193.236C96.9521 193.236 96.2127 193.76 96.2127 195.225V195.388C96.2127 196.337 96.5085 197.151 97.4154 197.151C98.5293 197.151 98.8645 196.292 98.8645 194.809V193.236H98.8547Z" fill="url(#paint14_linear_18_167)"/>
<path d="M105.272 193.326V194.953C105.272 196.02 105.489 197.195 106.642 197.195C107.707 197.195 107.944 196.445 107.944 195.396V195.297H108.92V195.378C108.92 196.526 108.614 197.991 106.623 197.991C104.848 197.991 104.296 196.861 104.296 194.971V191.228C104.296 189.728 104.907 188.435 106.672 188.435C108.466 188.435 108.949 189.755 108.949 191.238C108.949 191.717 108.949 192.793 108.949 193.317H105.272V193.326ZM107.983 192.539V191.238C107.983 190.37 107.875 189.249 106.662 189.249C105.489 189.249 105.282 190.189 105.282 191.256V192.548H107.983V192.539ZM109.117 184.918L106.849 187.296H105.943L107.934 184.918H109.117Z" fill="url(#paint15_linear_18_167)"/>
<path d="M117.949 195.487C117.949 196.572 117.949 197.44 117.969 197.846H117.032C117.013 197.693 116.983 197.205 116.983 196.825C116.707 197.684 116.116 197.991 115.219 197.991C114.469 197.991 113.286 197.774 113.286 195.659V188.589H114.272V195.424C114.272 196.698 114.637 197.159 115.485 197.159C116.234 197.159 116.963 196.762 116.963 194.592V188.589H117.949V195.487Z" fill="url(#paint16_linear_18_167)"/>
<path d="M119.941 191.247C119.941 189.683 119.941 189.059 119.921 188.589H120.858C120.897 188.851 120.897 189.195 120.907 189.493C121.173 188.86 121.695 188.444 122.602 188.444C123.352 188.444 123.923 188.716 124.14 189.565C124.416 188.96 124.949 188.444 125.944 188.444C126.851 188.444 127.778 188.779 127.778 190.551V197.847H126.792V190.759C126.792 189.972 126.654 189.294 125.717 189.294C124.604 189.294 124.357 190.262 124.357 191.319V197.847H123.371V190.858C123.371 189.755 123.095 189.294 122.257 189.294C121.193 189.294 120.927 190.289 120.927 191.464V197.847H119.941V191.247Z" fill="url(#paint17_linear_18_167)"/>
<path d="M133.85 196.454C133.85 197.123 133.87 197.63 133.889 197.847H132.953C132.894 197.584 132.864 197.214 132.864 197.042C132.559 197.81 131.878 197.991 131.228 197.991C129.808 197.991 129.256 196.879 129.256 195.424V195.261C129.256 193.299 130.488 192.467 132.273 192.467C132.46 192.467 132.608 192.467 132.854 192.467V190.804C132.854 189.882 132.657 189.267 131.74 189.267C130.824 189.267 130.557 189.9 130.557 190.732V191.048H129.582V190.741C129.582 189.484 130.134 188.444 131.78 188.444C133.406 188.444 133.86 189.475 133.86 190.741V196.454H133.85ZM132.874 193.236C132.726 193.236 132.44 193.236 132.273 193.236C130.971 193.236 130.232 193.76 130.232 195.225V195.388C130.232 196.337 130.528 197.151 131.435 197.151C132.549 197.151 132.884 196.292 132.884 194.809V193.236H132.874Z" fill="url(#paint18_linear_18_167)"/>
<path d="M138.72 197.847V189.403H137.596V188.589H138.72V187.007C138.72 185.985 139.104 184.937 140.553 184.937C140.76 184.937 141.027 184.955 141.155 184.991V185.859C140.977 185.823 140.829 185.814 140.642 185.814C139.863 185.814 139.706 186.338 139.706 187.097V188.598H141.046V189.412H139.706V197.856H138.72V197.847Z" fill="url(#paint19_linear_18_167)"/>
<path d="M142.062 188.589H143.048V197.847H142.062V188.589ZM142.072 185.009H143.057V186.826H142.072V185.009Z" fill="url(#paint20_linear_18_167)"/>
<path d="M145.709 193.326V194.953C145.709 196.02 145.926 197.196 147.079 197.196C148.144 197.196 148.381 196.445 148.381 195.396V195.297H149.356V195.378C149.356 196.526 149.051 197.991 147.06 197.991C145.285 197.991 144.733 196.861 144.733 194.971V191.229C144.733 189.728 145.344 188.435 147.109 188.435C148.903 188.435 149.386 189.755 149.386 191.238C149.386 191.717 149.386 192.793 149.386 193.317H145.709V193.326ZM148.41 192.54V191.238C148.41 190.37 148.302 189.249 147.089 189.249C145.916 189.249 145.709 190.189 145.709 191.256V192.549H148.41V192.54Z" fill="url(#paint21_linear_18_167)"/>
<path d="M151.584 195.198V195.596C151.584 196.726 152.127 197.196 152.905 197.196C153.832 197.196 154.187 196.653 154.187 195.641C154.187 194.538 153.822 194.095 152.728 193.417C151.397 192.603 150.806 191.961 150.806 190.705C150.806 189.475 151.387 188.444 152.965 188.444C154.67 188.444 155.074 189.547 155.074 190.723V191.184H154.108V190.714C154.108 189.828 153.852 189.249 152.945 189.249C152.146 189.249 151.811 189.746 151.811 190.623C151.811 191.491 152.097 191.862 153.172 192.531C154.453 193.326 155.212 193.959 155.212 195.496C155.212 197.105 154.493 198 152.866 198C151.092 198 150.609 196.87 150.609 195.632V195.207H151.584V195.198Z" fill="url(#paint22_linear_18_167)"/>
<path d="M155.774 188.589H156.996V186.274H157.962V188.589H159.5V189.402H157.962V196.147C157.962 196.653 158.071 197.177 158.731 197.177C158.929 197.177 159.254 197.159 159.421 197.123V197.846C159.145 197.937 158.741 197.955 158.426 197.955C157.647 197.955 156.996 197.584 156.996 196.309V189.402H155.774V188.589Z" fill="url(#paint23_linear_18_167)"/>
<path d="M164.853 196.454C164.853 197.123 164.873 197.63 164.893 197.847H163.956C163.897 197.584 163.867 197.214 163.867 197.042C163.562 197.81 162.882 197.991 162.231 197.991C160.811 197.991 160.259 196.879 160.259 195.424V195.261C160.259 193.299 161.492 192.467 163.276 192.467C163.463 192.467 163.611 192.467 163.858 192.467V190.804C163.858 189.882 163.66 189.267 162.744 189.267C161.827 189.267 161.561 189.9 161.561 190.732V191.048H160.585V190.741C160.585 189.484 161.137 188.444 162.783 188.444C164.41 188.444 164.863 189.475 164.863 190.741V196.454H164.853ZM163.877 193.236C163.729 193.236 163.443 193.236 163.276 193.236C161.975 193.236 161.235 193.76 161.235 195.225V195.388C161.235 196.337 161.531 197.151 162.438 197.151C163.552 197.151 163.887 196.292 163.887 194.809V193.236H163.877Z" fill="url(#paint24_linear_18_167)"/>
<path d="M167.406 194.058L167.308 187.694V185.56H168.372V187.703L168.284 194.058H167.406ZM167.318 197.846V196.481H168.353V197.846H167.318Z" fill="url(#paint25_linear_18_167)"/>
<path d="M6.87092 169.983V178.499H2.76019V158.899H8.0933C11.6717 158.899 13.4461 160.346 13.4461 163.772V164.477C13.4461 167.271 12.2336 168.102 11.3168 168.5C12.6476 169.088 13.2687 169.983 13.2687 172.722C13.2687 174.612 13.2391 177.478 13.4165 178.508H9.44383C9.17767 177.622 9.19738 175.073 9.19738 172.569C9.19738 170.363 8.92136 169.992 7.35396 169.992H6.87092V169.983ZM6.88078 167.009H7.39339C8.76363 167.009 9.32553 166.611 9.32553 164.785V163.835C9.32553 162.524 9.03966 161.864 7.52154 161.864H6.88078V167.009Z" fill="#FF682A"/>
<path d="M23.6294 158.899V178.499H19.5286V158.899H23.6294Z" fill="#FF682A"/>
<path d="M30.0468 158.899H35.5277C39.0766 158.899 40.8313 160.617 40.8313 164.088V165.282C40.8313 168.717 39.4216 170.788 35.3601 170.788H34.1575V178.49H30.0468V158.899ZM34.1673 167.741H34.8377C36.3952 167.741 36.7304 166.936 36.7304 165.309V163.953C36.7304 162.687 36.4051 161.873 35.0348 161.873H34.1772V167.741H34.1673Z" fill="#FF682A"/>
<path d="M54.9773 169.847H50.5708V175.19H55.7363L55.2434 178.508H46.4601V158.908H55.2139V162.244H50.5708V166.538H54.9773V169.847Z" fill="#FF682A"/>
<path d="M79.8093 164.143V173.238C79.8093 177.125 77.818 178.798 74.0819 178.798C70.5331 178.798 68.7094 177.089 68.7094 173.283V164.052C68.7094 160.264 70.9767 158.619 74.2692 158.619C77.5814 158.61 79.8093 160.237 79.8093 164.143ZM72.8694 163.718V173.735C72.8694 174.946 73.3228 175.579 74.2396 175.579C75.1958 175.579 75.6296 175.01 75.6296 173.717V163.691C75.6296 162.47 75.2648 161.837 74.2298 161.837C73.3524 161.846 72.8694 162.425 72.8694 163.718Z" fill="#FF682A"/>
<path d="M89.9629 169.983V178.499H85.862V158.899H91.1951C94.7735 158.899 96.5479 160.346 96.5479 163.772V164.477C96.5479 167.271 95.3354 168.102 94.4186 168.5C95.7494 169.088 96.3705 169.983 96.3705 172.722C96.3705 174.612 96.3409 177.478 96.5184 178.508H92.5456C92.2795 177.622 92.2992 175.073 92.2992 172.569C92.2992 170.363 92.0232 169.992 90.4558 169.992H89.9629V169.983ZM89.9826 167.009H90.4952C91.8654 167.009 92.4273 166.611 92.4273 164.785V163.835C92.4273 162.524 92.1415 161.864 90.6233 161.864H89.9826V167.009Z" fill="#FF682A"/>
<path d="M106.721 158.899V178.499H102.62V158.899H106.721Z" fill="#FF682A"/>
<path d="M123.726 178.5H120.641C120.542 178.156 120.483 177.46 120.453 177.053C119.773 178.427 118.403 178.798 117.082 178.798C113.76 178.798 112.823 176.529 112.823 173.328V164.107C112.823 161.105 114.184 158.61 118.255 158.61C123.174 158.61 123.667 161.892 123.667 163.872V164.758H119.527V163.682C119.527 162.733 119.398 161.856 118.255 161.856C117.318 161.856 116.964 162.489 116.964 163.763V173.808C116.964 175.146 117.437 175.634 118.255 175.634C119.251 175.634 119.596 174.92 119.596 173.31V170.499H118.186V167.316H123.726V178.5Z" fill="#FF682A"/>
<path d="M134.136 158.899V178.499H130.035V158.899H134.136Z" fill="#FF682A"/>
<path d="M140.563 178.499V158.899H145.108C145.788 161.295 147.927 170.164 148.095 171.023H148.193C147.967 168.419 147.819 164.848 147.819 162.118V158.899H151.634V178.499H147.04C146.596 176.637 144.26 166.493 144.122 165.869H144.014C144.171 168.175 144.299 172.071 144.299 175.154V178.499H140.563Z" fill="#FF682A"/>
<path d="M161.245 172.46V173.816C161.245 175.109 161.59 175.706 162.527 175.706C163.473 175.706 163.7 174.82 163.7 173.897C163.7 172.044 163.325 171.511 161.137 169.838C158.731 167.967 157.489 166.864 157.489 163.971C157.489 161.168 158.505 158.592 162.546 158.592C166.844 158.592 167.475 161.277 167.475 163.519V164.649H163.591V163.474C163.591 162.28 163.374 161.693 162.566 161.693C161.807 161.693 161.561 162.289 161.561 163.401C161.561 164.586 161.797 165.164 163.562 166.43C166.706 168.69 167.83 169.965 167.83 173.192C167.83 176.257 166.687 178.788 162.438 178.788C158.357 178.788 157.193 176.537 157.193 173.626V172.451H161.245V172.46Z" fill="#FF682A"/>
<path d="M118.768 120.72C119.862 120.702 120.956 120.675 122.05 120.648L123.943 120.594L125.185 120.53C125.648 120.512 126.121 120.458 126.614 120.386C128.556 120.133 130.489 119.509 132.263 118.605C135.812 116.742 138.483 113.723 139.883 110.622C141.263 107.485 141.786 104.456 141.648 101.482C141.549 98.5796 140.79 96.0301 139.883 93.6162C138.04 88.7885 135.605 84.5032 132.401 80.453C131.849 79.7568 131.011 79.4043 130.143 79.35C132.352 83.6624 143.343 106.463 132.509 113.424C130.035 115.016 126.043 115.811 120.601 115.811C119.99 115.811 119.329 115.775 118.669 115.748C118.649 114.916 118.63 114.12 118.62 113.352C124.456 113.551 128.744 112.909 131.011 111.453C139.045 106.291 131.593 87.6674 127.718 80.2541C127.107 80.8869 126.831 81.7368 126.989 82.5504L127.019 82.7041C127.876 87.1612 128.842 91.6725 129.365 95.8764C129.611 97.9829 129.749 100.026 129.798 101.78C129.789 103.443 129.582 105.116 128.97 106.264C128.389 107.43 127.541 108.117 126.565 108.38C126.072 108.524 125.54 108.56 124.978 108.606L121.952 108.615C120.808 108.615 119.655 108.624 118.511 108.633C118.491 107.946 118.472 107.304 118.462 106.807C118.363 102.567 118.137 98.3264 117.959 94.0863C117.772 89.8462 117.624 85.6062 117.289 81.3661C116.589 72.8859 115.593 64.4058 113.375 55.9256C113.089 54.8407 112.527 53.9276 111.808 53.2134C112.695 64.9844 116.254 115.287 114.006 138.413C115.603 139.136 117.318 139.877 119.172 140.628C119.044 134.878 118.896 127.356 118.768 120.72Z" fill="url(#paint26_linear_18_167)"/>
<path d="M111.473 137.265C113.632 112.602 109.639 59.2527 109.058 51.758C108.368 51.6224 107.648 51.6224 106.928 51.7851C106.297 58.2492 104.139 107.268 104.927 134.064C105.666 134.426 106.396 134.797 107.125 135.158C108.427 135.8 109.876 136.514 111.473 137.265Z" fill="url(#paint27_linear_18_167)"/>
<path d="M102.719 86.1579C103.32 66.5487 103.744 57.499 104.198 53.295C103.488 54.0273 102.965 54.9314 102.699 55.9349C100.491 64.4151 99.4855 72.8953 98.7856 81.3754C98.4504 85.6155 98.3025 89.8556 98.1152 94.0957C97.9476 98.3358 97.711 102.576 97.6125 106.816C97.3562 114.681 97.1984 122.547 97.1393 130.412C98.8841 131.181 100.59 131.967 102.246 132.772C101.891 117.909 102.354 97.947 102.719 86.1579Z" fill="url(#paint28_linear_18_167)"/>
<path d="M64.6282 122.935C64.0268 89.4216 67.5067 40.7646 68.4333 28.5868C67.2701 29.5632 66.3632 30.9102 65.9393 32.5376C63.0411 43.6486 61.73 54.7596 60.8132 65.8706C60.3696 71.4216 60.1823 76.9816 59.9358 82.5326C59.7091 88.0926 59.4035 93.6436 59.2852 99.2036C59.2655 99.9088 59.2359 100.741 59.2064 101.617C56.7715 101.59 54.3464 101.572 51.9115 101.572L47.9487 101.563C47.2093 101.509 46.5094 101.455 45.8687 101.265C44.5773 100.921 43.4732 100.026 42.7141 98.4894C41.9157 96.9887 41.6396 94.7918 41.6298 92.613C41.6889 90.3166 41.8664 87.6315 42.1917 84.8832C42.8817 79.3683 44.1534 73.4557 45.2673 67.6155L45.3068 67.4166C45.5236 66.2593 45.0899 65.075 44.1435 64.2252C41.0482 70.3457 27.9668 98.0012 39.8061 105.604C43.138 107.738 49.6048 108.606 58.4769 108.082L58.6445 110.477C56.8996 110.577 55.2435 110.631 53.6761 110.631C46.6376 110.631 41.4819 109.609 38.3077 107.566C24.6447 98.7878 38.4457 69.7129 41.7776 63.1946C40.437 63.0861 39.0667 63.5923 38.2091 64.6591C33.9998 69.966 30.8157 75.5803 28.4005 81.9088C27.2176 85.073 26.2219 88.4181 26.0938 92.2242C25.9163 96.1208 26.5965 100.099 28.4005 104.203C30.2439 108.253 33.7435 112.222 38.3865 114.663C40.7031 115.848 43.2366 116.67 45.7799 116.996C46.4207 117.095 47.0516 117.158 47.6529 117.186L49.2795 117.267L51.7637 117.33C54.1 117.403 56.4363 117.448 58.7825 117.484C58.7332 119.274 58.6937 121.109 58.6543 122.954C59.9556 122.89 61.2568 122.845 62.5679 122.845C63.2777 122.872 63.948 122.908 64.6282 122.935Z" fill="url(#paint29_linear_18_167)"/>
<path d="M74.8508 27.1853C73.5989 26.8146 72.3469 26.8598 71.164 27.1672C70.4838 35.9096 66.5899 88.002 67.2504 123.071C70.9865 123.315 74.4171 123.749 77.6209 124.327C78.0152 86.6278 75.4719 30.901 74.8508 27.1853Z" fill="url(#paint30_linear_18_167)"/>
<path d="M86.5521 99.2035C86.4239 93.6525 86.1183 88.0925 85.9015 82.5325C85.655 76.9815 85.4677 71.4214 85.0241 65.8705C84.1073 54.7595 82.7962 43.6485 79.898 32.5374C79.5037 31.0457 78.6559 29.7439 77.5223 28.7404C78.1236 33.3692 78.7249 44.6881 79.5431 72.6058C79.9276 85.7961 80.4106 106.852 80.2135 124.843C82.6484 125.367 84.9354 125.973 87.1238 126.651C87.0351 117.502 86.8577 108.353 86.5521 99.2035Z" fill="url(#paint31_linear_18_167)"/>
<path d="M165.139 149.75C158.633 136.135 141.263 126.958 123.825 128.025V142.445C152.551 153.502 165.139 149.75 165.139 149.75Z" fill="url(#paint32_linear_18_167)"/>
<path d="M8.06374 79.0247C8.06374 39.5259 43.0986 7.39528 86.1676 7.39528C129.237 7.39528 164.272 39.5259 164.272 79.0247C164.272 96.7263 157.213 112.918 145.561 125.431C148.134 126.389 150.609 127.519 152.955 128.83C165.05 115.224 172.335 97.9016 172.335 79.0247C172.335 35.4485 133.683 0 86.1676 0C38.6527 0 0 35.4485 0 79.0247C0 99.764 8.78336 118.641 23.0871 132.744C25.2559 131.289 27.5922 129.96 30.0566 128.767C16.4626 115.875 8.06374 98.3446 8.06374 79.0247Z" fill="url(#paint33_linear_18_167)"/>
<path d="M139.469 151.251C104.267 148.376 99.6335 128.459 62.5679 127.655C40.1216 127.655 21.1255 137.518 14.6193 151.124L139.469 151.251Z" fill="url(#paint34_linear_18_167)"/>
<defs>
<linearGradient id="paint0_linear_18_167" x1="85.9348" y1="183.97" x2="85.9348" y2="195.57" gradientUnits="userSpaceOnUse">
<stop stop-color="#FF992A"/>
<stop offset="1" stop-color="#FF682A"/>
</linearGradient>
<linearGradient id="paint1_linear_18_167" x1="85.9348" y1="183.97" x2="85.9348" y2="195.57" gradientUnits="userSpaceOnUse">
<stop stop-color="#FF992A"/>
<stop offset="1" stop-color="#FF682A"/>
</linearGradient>
<linearGradient id="paint2_linear_18_167" x1="85.9348" y1="183.97" x2="85.9348" y2="195.57" gradientUnits="userSpaceOnUse">
<stop stop-color="#FF992A"/>
<stop offset="1" stop-color="#FF682A"/>
</linearGradient>
<linearGradient id="paint3_linear_18_167" x1="85.9347" y1="183.97" x2="85.9347" y2="195.57" gradientUnits="userSpaceOnUse">
<stop stop-color="#FF992A"/>
<stop offset="1" stop-color="#FF682A"/>
</linearGradient>
<linearGradient id="paint4_linear_18_167" x1="85.9347" y1="183.97" x2="85.9347" y2="195.57" gradientUnits="userSpaceOnUse">
<stop stop-color="#FF992A"/>
<stop offset="1" stop-color="#FF682A"/>
</linearGradient>
<linearGradient id="paint5_linear_18_167" x1="85.9349" y1="183.97" x2="85.9349" y2="195.57" gradientUnits="userSpaceOnUse">
<stop stop-color="#FF992A"/>
<stop offset="1" stop-color="#FF682A"/>
</linearGradient>
<linearGradient id="paint6_linear_18_167" x1="85.9347" y1="183.97" x2="85.9347" y2="195.57" gradientUnits="userSpaceOnUse">
<stop stop-color="#FF992A"/>
<stop offset="1" stop-color="#FF682A"/>
</linearGradient>
<linearGradient id="paint7_linear_18_167" x1="85.9348" y1="183.97" x2="85.9348" y2="195.57" gradientUnits="userSpaceOnUse">
<stop stop-color="#FF992A"/>
<stop offset="1" stop-color="#FF682A"/>
</linearGradient>
<linearGradient id="paint8_linear_18_167" x1="85.9348" y1="183.97" x2="85.9348" y2="195.57" gradientUnits="userSpaceOnUse">
<stop stop-color="#FF992A"/>
<stop offset="1" stop-color="#FF682A"/>
</linearGradient>
<linearGradient id="paint9_linear_18_167" x1="85.9347" y1="183.97" x2="85.9347" y2="195.57" gradientUnits="userSpaceOnUse">
<stop stop-color="#FF992A"/>
<stop offset="1" stop-color="#FF682A"/>
</linearGradient>
<linearGradient id="paint10_linear_18_167" x1="85.9348" y1="183.97" x2="85.9348" y2="195.57" gradientUnits="userSpaceOnUse">
<stop stop-color="#FF992A"/>
<stop offset="1" stop-color="#FF682A"/>
</linearGradient>
<linearGradient id="paint11_linear_18_167" x1="85.9348" y1="183.97" x2="85.9348" y2="195.57" gradientUnits="userSpaceOnUse">
<stop stop-color="#FF992A"/>
<stop offset="1" stop-color="#FF682A"/>
</linearGradient>
<linearGradient id="paint12_linear_18_167" x1="85.9347" y1="183.97" x2="85.9347" y2="195.57" gradientUnits="userSpaceOnUse">
<stop stop-color="#FF992A"/>
<stop offset="1" stop-color="#FF682A"/>
</linearGradient>
<linearGradient id="paint13_linear_18_167" x1="85.9347" y1="183.97" x2="85.9347" y2="195.57" gradientUnits="userSpaceOnUse">
<stop stop-color="#FF992A"/>
<stop offset="1" stop-color="#FF682A"/>
</linearGradient>
<linearGradient id="paint14_linear_18_167" x1="85.9348" y1="183.97" x2="85.9348" y2="195.57" gradientUnits="userSpaceOnUse">
<stop stop-color="#FF992A"/>
<stop offset="1" stop-color="#FF682A"/>
</linearGradient>
<linearGradient id="paint15_linear_18_167" x1="85.9348" y1="183.969" x2="85.9348" y2="195.57" gradientUnits="userSpaceOnUse">
<stop stop-color="#FF992A"/>
<stop offset="1" stop-color="#FF682A"/>
</linearGradient>
<linearGradient id="paint16_linear_18_167" x1="85.9347" y1="183.97" x2="85.9347" y2="195.57" gradientUnits="userSpaceOnUse">
<stop stop-color="#FF992A"/>
<stop offset="1" stop-color="#FF682A"/>
</linearGradient>
<linearGradient id="paint17_linear_18_167" x1="85.9348" y1="183.97" x2="85.9348" y2="195.57" gradientUnits="userSpaceOnUse">
<stop stop-color="#FF992A"/>
<stop offset="1" stop-color="#FF682A"/>
</linearGradient>
<linearGradient id="paint18_linear_18_167" x1="85.9347" y1="183.97" x2="85.9347" y2="195.57" gradientUnits="userSpaceOnUse">
<stop stop-color="#FF992A"/>
<stop offset="1" stop-color="#FF682A"/>
</linearGradient>
<linearGradient id="paint19_linear_18_167" x1="85.9348" y1="183.97" x2="85.9348" y2="195.571" gradientUnits="userSpaceOnUse">
<stop stop-color="#FF992A"/>
<stop offset="1" stop-color="#FF682A"/>
</linearGradient>
<linearGradient id="paint20_linear_18_167" x1="85.935" y1="183.97" x2="85.935" y2="195.57" gradientUnits="userSpaceOnUse">
<stop stop-color="#FF992A"/>
<stop offset="1" stop-color="#FF682A"/>
</linearGradient>
<linearGradient id="paint21_linear_18_167" x1="85.9348" y1="183.97" x2="85.9348" y2="195.57" gradientUnits="userSpaceOnUse">
<stop stop-color="#FF992A"/>
<stop offset="1" stop-color="#FF682A"/>
</linearGradient>
<linearGradient id="paint22_linear_18_167" x1="85.9349" y1="183.97" x2="85.9349" y2="195.57" gradientUnits="userSpaceOnUse">
<stop stop-color="#FF992A"/>
<stop offset="1" stop-color="#FF682A"/>
</linearGradient>
<linearGradient id="paint23_linear_18_167" x1="85.935" y1="183.97" x2="85.935" y2="195.57" gradientUnits="userSpaceOnUse">
<stop stop-color="#FF992A"/>
<stop offset="1" stop-color="#FF682A"/>
</linearGradient>
<linearGradient id="paint24_linear_18_167" x1="85.9349" y1="183.97" x2="85.9349" y2="195.57" gradientUnits="userSpaceOnUse">
<stop stop-color="#FF992A"/>
<stop offset="1" stop-color="#FF682A"/>
</linearGradient>
<linearGradient id="paint25_linear_18_167" x1="85.9354" y1="183.97" x2="85.9354" y2="195.57" gradientUnits="userSpaceOnUse">
<stop stop-color="#FF992A"/>
<stop offset="1" stop-color="#FF682A"/>
</linearGradient>
<linearGradient id="paint26_linear_18_167" x1="126.727" y1="76.2746" x2="126.727" y2="174.643" gradientUnits="userSpaceOnUse">
<stop stop-color="#29E26A"/>
<stop offset="0.1537" stop-color="#28D369"/>
<stop offset="0.4478" stop-color="#26AD67"/>
<stop offset="0.8489" stop-color="#226F64"/>
<stop offset="1" stop-color="#215663"/>
</linearGradient>
<linearGradient id="paint27_linear_18_167" x1="108.43" y1="76.2748" x2="108.43" y2="174.644" gradientUnits="userSpaceOnUse">
<stop stop-color="#29E26A"/>
<stop offset="0.1537" stop-color="#28D369"/>
<stop offset="0.4478" stop-color="#26AD67"/>
<stop offset="0.8489" stop-color="#226F64"/>
<stop offset="1" stop-color="#215663"/>
</linearGradient>
<linearGradient id="paint28_linear_18_167" x1="100.68" y1="76.275" x2="100.68" y2="174.643" gradientUnits="userSpaceOnUse">
<stop stop-color="#29E26A"/>
<stop offset="0.1537" stop-color="#28D369"/>
<stop offset="0.4478" stop-color="#26AD67"/>
<stop offset="0.8489" stop-color="#226F64"/>
<stop offset="1" stop-color="#215663"/>
</linearGradient>
<linearGradient id="paint29_linear_18_167" x1="47.2481" y1="61.4802" x2="47.2481" y2="167.848" gradientUnits="userSpaceOnUse">
<stop stop-color="#29E26A"/>
<stop offset="0.1537" stop-color="#28D369"/>
<stop offset="0.4478" stop-color="#26AD67"/>
<stop offset="0.8489" stop-color="#226F64"/>
<stop offset="1" stop-color="#215663"/>
</linearGradient>
<linearGradient id="paint30_linear_18_167" x1="72.4165" y1="61.48" x2="72.4165" y2="167.847" gradientUnits="userSpaceOnUse">
<stop stop-color="#29E26A"/>
<stop offset="0.1537" stop-color="#28D369"/>
<stop offset="0.4478" stop-color="#26AD67"/>
<stop offset="0.8489" stop-color="#226F64"/>
<stop offset="1" stop-color="#215663"/>
</linearGradient>
<linearGradient id="paint31_linear_18_167" x1="82.3283" y1="61.48" x2="82.3283" y2="167.848" gradientUnits="userSpaceOnUse">
<stop stop-color="#29E26A"/>
<stop offset="0.1537" stop-color="#28D369"/>
<stop offset="0.4478" stop-color="#26AD67"/>
<stop offset="0.8489" stop-color="#226F64"/>
<stop offset="1" stop-color="#215663"/>
</linearGradient>
<linearGradient id="paint32_linear_18_167" x1="144.482" y1="129.28" x2="144.482" y2="154.214" gradientUnits="userSpaceOnUse">
<stop stop-color="#FF992A"/>
<stop offset="1" stop-color="#FF682A"/>
</linearGradient>
<linearGradient id="paint33_linear_18_167" x1="0.00241518" y1="66.376" x2="172.332" y2="66.376" gradientUnits="userSpaceOnUse">
<stop stop-color="#FF992A"/>
<stop offset="1" stop-color="#FF682A"/>
</linearGradient>
<linearGradient id="paint34_linear_18_167" x1="77.0448" y1="129.063" x2="77.0448" y2="155.303" gradientUnits="userSpaceOnUse">
<stop stop-color="#FFD552"/>
<stop offset="1" stop-color="#FF992A"/>
</linearGradient>
</defs>
</svg>
